<mxfile host="app.diagrams.net" agent="Mozilla/5.0 (Windows NT 10.0; Win64; x64; rv:134.0) Gecko/20100101 Firefox/134.0" version="26.0.6" pages="3">
  <diagram name="inicio" id="PT6iB4Er7hbtqmGOgN85">
    <mxGraphModel dx="1600" dy="855" grid="1" gridSize="10" guides="1" tooltips="1" connect="1" arrows="1" fold="1" page="1" pageScale="1" pageWidth="827" pageHeight="1169" math="0" shadow="0">
      <root>
        <mxCell id="0" />
        <mxCell id="1" parent="0" />
        <mxCell id="ZUDr9GeCkMNVeFohUgj8-1" value="" style="edgeStyle=orthogonalEdgeStyle;rounded=0;orthogonalLoop=1;jettySize=auto;html=1;" edge="1" parent="1" source="ZUDr9GeCkMNVeFohUgj8-2" target="ZUDr9GeCkMNVeFohUgj8-9">
          <mxGeometry relative="1" as="geometry" />
        </mxCell>
        <mxCell id="ZUDr9GeCkMNVeFohUgj8-2" value="INÍCIO" style="ellipse;whiteSpace=wrap;html=1;" vertex="1" parent="1">
          <mxGeometry x="320" y="20" width="110" height="50" as="geometry" />
        </mxCell>
        <mxCell id="ZUDr9GeCkMNVeFohUgj8-3" value="FIM" style="ellipse;whiteSpace=wrap;html=1;" vertex="1" parent="1">
          <mxGeometry x="320" y="520" width="110" height="50" as="geometry" />
        </mxCell>
        <mxCell id="qEjK43fDT5KC2Odhrigi-2" value="" style="edgeStyle=orthogonalEdgeStyle;rounded=0;orthogonalLoop=1;jettySize=auto;html=1;" edge="1" parent="1" source="ZUDr9GeCkMNVeFohUgj8-9" target="qEjK43fDT5KC2Odhrigi-1">
          <mxGeometry relative="1" as="geometry" />
        </mxCell>
        <mxCell id="ZUDr9GeCkMNVeFohUgj8-9" value="var_Num[8] = {2,40,27,13,45,50,79,99}, i, menor=var_Num[0], maior=var_Num[0]" style="rounded=1;whiteSpace=wrap;html=1;" vertex="1" parent="1">
          <mxGeometry x="100" y="130" width="550" height="40" as="geometry" />
        </mxCell>
        <mxCell id="qEjK43fDT5KC2Odhrigi-4" value="" style="edgeStyle=orthogonalEdgeStyle;rounded=0;orthogonalLoop=1;jettySize=auto;html=1;" edge="1" parent="1" source="qEjK43fDT5KC2Odhrigi-1" target="qEjK43fDT5KC2Odhrigi-3">
          <mxGeometry relative="1" as="geometry" />
        </mxCell>
        <UserObject label="maiorMenor" link="data:page/id,1WCVud7ddNqFkdO_Cr7z" id="qEjK43fDT5KC2Odhrigi-1">
          <mxCell style="shape=process;whiteSpace=wrap;html=1;backgroundOutline=1;" vertex="1" parent="1">
            <mxGeometry x="315" y="240" width="120" height="60" as="geometry" />
          </mxCell>
        </UserObject>
        <mxCell id="qEjK43fDT5KC2Odhrigi-5" value="" style="edgeStyle=orthogonalEdgeStyle;rounded=0;orthogonalLoop=1;jettySize=auto;html=1;" edge="1" parent="1" source="qEjK43fDT5KC2Odhrigi-3" target="ZUDr9GeCkMNVeFohUgj8-3">
          <mxGeometry relative="1" as="geometry" />
        </mxCell>
        <UserObject label="finalizar" link="data:page/id,tnjeihFg3Rikvw0isHqr" id="qEjK43fDT5KC2Odhrigi-3">
          <mxCell style="shape=process;whiteSpace=wrap;html=1;backgroundOutline=1;" vertex="1" parent="1">
            <mxGeometry x="315" y="370" width="120" height="60" as="geometry" />
          </mxCell>
        </UserObject>
        <mxCell id="G-RTHUUDerJBkOdioRH5-1" value="&lt;div align=&quot;left&quot;&gt;&lt;font style=&quot;font-size: 22px;&quot;&gt;Programa 3: Maior e menor valor de um vetor&lt;/font&gt;&lt;br&gt;&lt;font style=&quot;font-size: 22px;&quot;&gt;- Crie uma variável inteira tipo vetor de nome var_Num com dimensão de 08 elementos&lt;/font&gt;&lt;br&gt;&lt;font style=&quot;font-size: 22px;&quot;&gt;- Preencha com valores quaisquer entre 0 a 100 (atribua, não use leia). Não repita os numeros.&lt;/font&gt;&lt;br&gt;&lt;font style=&quot;font-size: 22px;&quot;&gt;- Imprima ao final o MAIOR e MENOR valor encontrado.&lt;/font&gt;&lt;br&gt;&lt;font style=&quot;font-size: 22px;&quot;&gt;Ps: Nesse programa a sugestão é usar duas funções (que devem ser&lt;/font&gt;&lt;br&gt;&lt;font style=&quot;font-size: 22px;&quot;&gt;chamadas na função INICIO) :&lt;/font&gt;&lt;br&gt;&lt;font style=&quot;font-size: 22px;&quot;&gt;1 - MaiorMenor() - Com LOOP, fazer a leitura de todos os valores do vetor e&lt;/font&gt;&lt;br&gt;&lt;font style=&quot;font-size: 22px;&quot;&gt;identificar o maior e menor.&lt;/font&gt;&lt;br&gt;&lt;font style=&quot;font-size: 22px;&quot;&gt;2 - Finalizar() - Imprime o maior e menor valor encontrado.&lt;/font&gt;&lt;/div&gt;" style="text;html=1;align=left;verticalAlign=middle;whiteSpace=wrap;rounded=0;" vertex="1" parent="1">
          <mxGeometry x="30" y="660" width="770" height="450" as="geometry" />
        </mxCell>
      </root>
    </mxGraphModel>
  </diagram>
  <diagram id="1WCVud7ddNqFkdO_Cr7z" name="maiorMenor">
    <mxGraphModel dx="1354" dy="723" grid="1" gridSize="10" guides="1" tooltips="1" connect="1" arrows="1" fold="1" page="1" pageScale="1" pageWidth="827" pageHeight="1169" math="0" shadow="0">
      <root>
        <mxCell id="0" />
        <mxCell id="1" parent="0" />
        <mxCell id="ejfbA6CqVTVC_nKyUio2-1" value="" style="edgeStyle=orthogonalEdgeStyle;rounded=0;orthogonalLoop=1;jettySize=auto;html=1;" edge="1" parent="1" source="jmpPo_W8f4xsUux6XmG5-2" target="jmpPo_W8f4xsUux6XmG5-7">
          <mxGeometry relative="1" as="geometry" />
        </mxCell>
        <mxCell id="jmpPo_W8f4xsUux6XmG5-2" value="INÍCIO" style="ellipse;whiteSpace=wrap;html=1;" vertex="1" parent="1">
          <mxGeometry x="320" y="20" width="110" height="50" as="geometry" />
        </mxCell>
        <mxCell id="jmpPo_W8f4xsUux6XmG5-3" value="FIM" style="ellipse;whiteSpace=wrap;html=1;" vertex="1" parent="1">
          <mxGeometry x="320" y="840" width="110" height="50" as="geometry" />
        </mxCell>
        <mxCell id="ejfbA6CqVTVC_nKyUio2-2" value="" style="edgeStyle=orthogonalEdgeStyle;rounded=0;orthogonalLoop=1;jettySize=auto;html=1;" edge="1" parent="1" source="jmpPo_W8f4xsUux6XmG5-7" target="jmpPo_W8f4xsUux6XmG5-19">
          <mxGeometry relative="1" as="geometry" />
        </mxCell>
        <mxCell id="jmpPo_W8f4xsUux6XmG5-7" value="i=0; i&amp;lt;=7; i++" style="rounded=1;whiteSpace=wrap;html=1;" vertex="1" parent="1">
          <mxGeometry x="310" y="130" width="130" height="30" as="geometry" />
        </mxCell>
        <mxCell id="jmpPo_W8f4xsUux6XmG5-17" value="" style="edgeStyle=orthogonalEdgeStyle;rounded=0;orthogonalLoop=1;jettySize=auto;html=1;entryX=0.5;entryY=0;entryDx=0;entryDy=0;" edge="1" parent="1" source="jmpPo_W8f4xsUux6XmG5-19" target="jmpPo_W8f4xsUux6XmG5-21">
          <mxGeometry relative="1" as="geometry">
            <mxPoint x="621.25" y="290" as="targetPoint" />
          </mxGeometry>
        </mxCell>
        <mxCell id="ejfbA6CqVTVC_nKyUio2-4" value="" style="edgeStyle=orthogonalEdgeStyle;rounded=0;orthogonalLoop=1;jettySize=auto;html=1;" edge="1" parent="1" source="jmpPo_W8f4xsUux6XmG5-19" target="ejfbA6CqVTVC_nKyUio2-3">
          <mxGeometry relative="1" as="geometry" />
        </mxCell>
        <mxCell id="jmpPo_W8f4xsUux6XmG5-19" value="var_Num[i] &amp;gt; maior" style="strokeWidth=2;html=1;shape=mxgraph.flowchart.decision;whiteSpace=wrap;" vertex="1" parent="1">
          <mxGeometry x="260" y="235" width="227.5" height="110" as="geometry" />
        </mxCell>
        <mxCell id="ejfbA6CqVTVC_nKyUio2-9" value="" style="edgeStyle=orthogonalEdgeStyle;rounded=0;orthogonalLoop=1;jettySize=auto;html=1;entryX=1;entryY=0.5;entryDx=0;entryDy=0;entryPerimeter=0;" edge="1" parent="1" source="jmpPo_W8f4xsUux6XmG5-21" target="jmpPo_W8f4xsUux6XmG5-23">
          <mxGeometry relative="1" as="geometry">
            <mxPoint x="728.1538461538462" y="700" as="targetPoint" />
            <Array as="points">
              <mxPoint x="728" y="710" />
            </Array>
          </mxGeometry>
        </mxCell>
        <mxCell id="jmpPo_W8f4xsUux6XmG5-21" value="maior = var_Num[i]" style="rounded=1;whiteSpace=wrap;html=1;" vertex="1" parent="1">
          <mxGeometry x="640" y="365" width="176.25" height="45" as="geometry" />
        </mxCell>
        <mxCell id="ejfbA6CqVTVC_nKyUio2-15" value="" style="edgeStyle=orthogonalEdgeStyle;rounded=0;orthogonalLoop=1;jettySize=auto;html=1;" edge="1" parent="1" source="jmpPo_W8f4xsUux6XmG5-23" target="jmpPo_W8f4xsUux6XmG5-3">
          <mxGeometry relative="1" as="geometry" />
        </mxCell>
        <mxCell id="jmpPo_W8f4xsUux6XmG5-23" value="&quot;Número na posição &quot;, i, &quot;=&quot;, var_Num[i],&quot;\n&quot;" style="strokeWidth=2;html=1;shape=mxgraph.flowchart.display;whiteSpace=wrap;" vertex="1" parent="1">
          <mxGeometry x="233.75" y="670" width="282.5" height="80" as="geometry" />
        </mxCell>
        <mxCell id="jmpPo_W8f4xsUux6XmG5-24" value="V" style="text;html=1;align=center;verticalAlign=middle;whiteSpace=wrap;rounded=0;" vertex="1" parent="1">
          <mxGeometry x="558.75" y="255" width="60" height="30" as="geometry" />
        </mxCell>
        <mxCell id="jmpPo_W8f4xsUux6XmG5-25" value="F" style="text;html=1;align=center;verticalAlign=middle;whiteSpace=wrap;rounded=0;" vertex="1" parent="1">
          <mxGeometry x="300" y="372.5" width="60" height="30" as="geometry" />
        </mxCell>
        <mxCell id="ejfbA6CqVTVC_nKyUio2-6" value="" style="edgeStyle=orthogonalEdgeStyle;rounded=0;orthogonalLoop=1;jettySize=auto;html=1;" edge="1" parent="1" source="ejfbA6CqVTVC_nKyUio2-3" target="ejfbA6CqVTVC_nKyUio2-5">
          <mxGeometry relative="1" as="geometry" />
        </mxCell>
        <mxCell id="ejfbA6CqVTVC_nKyUio2-14" value="" style="edgeStyle=orthogonalEdgeStyle;rounded=0;orthogonalLoop=1;jettySize=auto;html=1;entryX=0.5;entryY=0;entryDx=0;entryDy=0;entryPerimeter=0;" edge="1" parent="1" source="ejfbA6CqVTVC_nKyUio2-3" target="jmpPo_W8f4xsUux6XmG5-23">
          <mxGeometry relative="1" as="geometry">
            <mxPoint x="375.0769230769231" y="635.0769230769231" as="targetPoint" />
          </mxGeometry>
        </mxCell>
        <mxCell id="ejfbA6CqVTVC_nKyUio2-3" value="var_Num[i] &amp;lt; menor" style="strokeWidth=2;html=1;shape=mxgraph.flowchart.decision;whiteSpace=wrap;" vertex="1" parent="1">
          <mxGeometry x="261.25" y="430" width="227.5" height="110" as="geometry" />
        </mxCell>
        <mxCell id="ejfbA6CqVTVC_nKyUio2-5" value="menor = var_Num[i]" style="rounded=1;whiteSpace=wrap;html=1;" vertex="1" parent="1">
          <mxGeometry x="530" y="462.5" width="176.25" height="45" as="geometry" />
        </mxCell>
        <mxCell id="ejfbA6CqVTVC_nKyUio2-10" value="V" style="text;html=1;align=center;verticalAlign=middle;whiteSpace=wrap;rounded=0;" vertex="1" parent="1">
          <mxGeometry x="470" y="440" width="60" height="30" as="geometry" />
        </mxCell>
        <mxCell id="ejfbA6CqVTVC_nKyUio2-12" value="F" style="text;html=1;align=center;verticalAlign=middle;whiteSpace=wrap;rounded=0;" vertex="1" parent="1">
          <mxGeometry x="310" y="590" width="60" height="30" as="geometry" />
        </mxCell>
      </root>
    </mxGraphModel>
  </diagram>
  <diagram id="tnjeihFg3Rikvw0isHqr" name="finalizar">
    <mxGraphModel dx="1956" dy="1044" grid="1" gridSize="10" guides="1" tooltips="1" connect="1" arrows="1" fold="1" page="1" pageScale="1" pageWidth="827" pageHeight="1169" math="0" shadow="0">
      <root>
        <mxCell id="0" />
        <mxCell id="1" parent="0" />
        <mxCell id="LAfherEkqIHbF4PvLeuP-1" value="" style="edgeStyle=orthogonalEdgeStyle;rounded=0;orthogonalLoop=1;jettySize=auto;html=1;" edge="1" parent="1" source="AF9VCYYedXhGP-BgnWYU-2" target="AF9VCYYedXhGP-BgnWYU-23">
          <mxGeometry relative="1" as="geometry" />
        </mxCell>
        <mxCell id="AF9VCYYedXhGP-BgnWYU-2" value="INÍCIO" style="ellipse;whiteSpace=wrap;html=1;" vertex="1" parent="1">
          <mxGeometry x="340" y="70" width="110" height="50" as="geometry" />
        </mxCell>
        <mxCell id="AF9VCYYedXhGP-BgnWYU-3" value="FIM" style="ellipse;whiteSpace=wrap;html=1;" vertex="1" parent="1">
          <mxGeometry x="340" y="370" width="110" height="50" as="geometry" />
        </mxCell>
        <mxCell id="LAfherEkqIHbF4PvLeuP-2" value="" style="edgeStyle=orthogonalEdgeStyle;rounded=0;orthogonalLoop=1;jettySize=auto;html=1;" edge="1" parent="1" source="AF9VCYYedXhGP-BgnWYU-23" target="AF9VCYYedXhGP-BgnWYU-3">
          <mxGeometry relative="1" as="geometry" />
        </mxCell>
        <mxCell id="AF9VCYYedXhGP-BgnWYU-23" value="escreva(&quot;O maior número = &quot;, maior,&quot;\n&quot;)&lt;br&gt;escreva(&quot;O menor número = &quot;, menor)" style="strokeWidth=2;html=1;shape=mxgraph.flowchart.display;whiteSpace=wrap;" vertex="1" parent="1">
          <mxGeometry x="245" y="200" width="300" height="100" as="geometry" />
        </mxCell>
      </root>
    </mxGraphModel>
  </diagram>
</mxfile>
